<?xml version="1.0" encoding="utf-8"?>
<!-- Generator: Adobe Illustrator 27.3.1, SVG Export Plug-In . SVG Version: 6.00 Build 0)  -->
<svg version="1.1" id="Layer_1" xmlns="http://www.w3.org/2000/svg" xmlns:xlink="http://www.w3.org/1999/xlink" x="0px" y="0px"
	 viewBox="0 0 19 19" style="enable-background:new 0 0 19 19;" xml:space="preserve">
<style type="text/css">
	.st0{fill:#FFFFFF;}
</style>
<g id="XMLID_801_">
	<path id="XMLID_802_" class="st0" d="M5.3,6.7H2.1C2,6.7,1.9,6.8,1.9,6.9v10.2c0,0.1,0.1,0.3,0.3,0.3h3.2c0.1,0,0.3-0.1,0.3-0.3
		V6.9C5.5,6.8,5.4,6.7,5.3,6.7z"/>
	<path id="XMLID_803_" class="st0" d="M3.7,1.6c-1.2,0-2.1,0.9-2.1,2.1c0,1.2,0.9,2.1,2.1,2.1c1.2,0,2.1-0.9,2.1-2.1
		C5.8,2.6,4.8,1.6,3.7,1.6z"/>
	<path id="XMLID_804_" class="st0" d="M13.3,6.4c-1.3,0-2.2,0.5-2.8,1.2V6.9c0-0.1-0.1-0.3-0.3-0.3h-3C7.1,6.7,7,6.8,7,6.9v10.2
		c0,0.1,0.1,0.3,0.3,0.3h3.2c0.1,0,0.3-0.1,0.3-0.3v-5c0-1.7,0.5-2.4,1.6-2.4c1.3,0,1.4,1.1,1.4,2.4v5c0,0.1,0.1,0.3,0.3,0.3h3.2
		c0.1,0,0.3-0.1,0.3-0.3v-5.6C17.4,9,16.9,6.4,13.3,6.4z"/>
</g>
</svg>
