<?xml version="1.0" encoding="utf-8"?>
<!-- Generator: Adobe Illustrator 27.3.1, SVG Export Plug-In . SVG Version: 6.00 Build 0)  -->
<svg version="1.1" id="Layer_1" xmlns="http://www.w3.org/2000/svg" xmlns:xlink="http://www.w3.org/1999/xlink" x="0px" y="0px"
	 viewBox="0 0 19 19" style="enable-background:new 0 0 19 19;" xml:space="preserve">
<style type="text/css">
	.st0{fill:#FFFFFF;}
</style>
<path class="st0" d="M9.8,1.6c0.9,0,1.7,0,2.6,0c0,1.1,0.5,2,1.2,2.7l0,0c0.7,0.7,1.7,1.1,2.8,1.2l0,0v2.7c-1,0-2-0.3-2.8-0.7l0,0
	c-0.4-0.2-0.8-0.4-1.1-0.6l0,0c0,1.9,0,3.8,0,5.8c-0.1,1-0.4,1.9-0.9,2.6l0,0c-0.9,1.2-2.3,2.1-3.9,2.1h0c-0.1,0-0.1,0-0.2,0
	c-0.9,0-1.8-0.3-2.5-0.7l0,0c-1.3-0.8-2.2-2.2-2.4-3.7l0,0c0-0.3,0-0.7,0-1C2.9,9.5,5,7.5,7.6,7.5c0.3,0,0.6,0,0.8,0.1l0,0
	c0,1,0,1.9,0,2.9c-0.2-0.1-0.5-0.1-0.7-0.1c-1,0-1.8,0.6-2.1,1.5l0,0c-0.1,0.2-0.1,0.5-0.1,0.8c0,0.1,0,0.2,0,0.3l0,0
	c0.2,1.1,1.1,1.9,2.2,1.9c0,0,0.1,0,0.1,0h0c0.8,0,1.4-0.4,1.8-1l0,0c0.1-0.2,0.2-0.4,0.3-0.7l0,0c0.1-1.2,0-2.3,0-3.5
	C9.8,6.9,9.8,4.3,9.8,1.6L9.8,1.6z"/>
</svg>
