<?xml version="1.0" encoding="utf-8"?>
<!-- Generator: Adobe Illustrator 27.3.1, SVG Export Plug-In . SVG Version: 6.00 Build 0)  -->
<svg version="1.1" id="Layer_1" xmlns="http://www.w3.org/2000/svg" xmlns:xlink="http://www.w3.org/1999/xlink" x="0px" y="0px"
	 viewBox="0 0 100 100" style="enable-background:new 0 0 100 100;" xml:space="preserve">
<style type="text/css">
	.st0{fill:none;stroke:#FFFFFF;stroke-width:2;stroke-linecap:round;stroke-linejoin:round;}
</style>
<path class="st0" d="M40,63.8c2.1,0,3.8-1.7,3.8-3.8s-1.7-3.8-3.8-3.8s-3.8,1.7-3.8,3.8S37.9,63.8,40,63.8z"/>
<path class="st0" d="M48.4,63.4c-0.2,0.3-0.2,0.7-0.1,1.1c0.1,0.4,0.2,0.7,0.5,1l0.1,0.1c0.2,0.2,0.4,0.5,0.5,0.7
	c0.1,0.3,0.2,0.6,0.2,0.9s-0.1,0.6-0.2,0.9c-0.1,0.3-0.3,0.5-0.5,0.7c-0.2,0.2-0.5,0.4-0.7,0.5c-0.3,0.1-0.6,0.2-0.9,0.2
	s-0.6-0.1-0.9-0.2c-0.3-0.1-0.5-0.3-0.7-0.5l-0.1-0.1c-0.3-0.3-0.6-0.4-1-0.5c-0.4-0.1-0.7,0-1.1,0.1c-0.3,0.1-0.6,0.4-0.8,0.7
	c-0.2,0.3-0.3,0.7-0.3,1v0.2c0,0.6-0.2,1.2-0.7,1.6c-0.4,0.4-1,0.7-1.6,0.7s-1.2-0.2-1.6-0.7c-0.4-0.4-0.7-1-0.7-1.6v-0.1
	c0-0.4-0.1-0.7-0.3-1s-0.5-0.5-0.9-0.7c-0.3-0.2-0.7-0.2-1.1-0.1c-0.4,0.1-0.7,0.2-1,0.5l-0.1,0.1c-0.3,0.3-0.7,0.5-1.2,0.6
	c-0.4,0.1-0.9,0-1.3-0.1c-0.4-0.2-0.8-0.5-1-0.8c-0.2-0.4-0.4-0.8-0.4-1.3c0-0.3,0.1-0.6,0.2-0.9c0.1-0.3,0.3-0.5,0.5-0.7l0.1-0.1
	c0.3-0.3,0.4-0.6,0.5-1c0.1-0.4,0-0.7-0.1-1.1c-0.1-0.3-0.4-0.6-0.7-0.8c-0.3-0.2-0.7-0.3-1-0.3h-0.2c-0.6,0-1.2-0.2-1.6-0.7
	c-0.4-0.4-0.7-1-0.7-1.6s0.2-1.2,0.7-1.6c0.4-0.4,1-0.7,1.6-0.7h0.1c0.4,0,0.7-0.1,1-0.3c0.3-0.2,0.5-0.5,0.7-0.9
	c0.2-0.3,0.2-0.7,0.1-1.1c-0.1-0.4-0.2-0.7-0.5-1l-0.1-0.1c-0.2-0.2-0.4-0.5-0.5-0.7c-0.1-0.3-0.2-0.6-0.2-0.9
	c0-0.3,0.1-0.6,0.2-0.9c0.1-0.3,0.3-0.5,0.5-0.7c0.2-0.2,0.5-0.4,0.7-0.5c0.3-0.1,0.6-0.2,0.9-0.2c0.3,0,0.6,0.1,0.9,0.2
	c0.3,0.1,0.5,0.3,0.7,0.5l0.1,0.1c0.3,0.3,0.6,0.4,1,0.5c0.4,0.1,0.7,0,1.1-0.1h0.1c0.3-0.1,0.6-0.4,0.8-0.7c0.2-0.3,0.3-0.7,0.3-1
	v-0.2c0-0.6,0.2-1.2,0.7-1.6c0.4-0.4,1-0.7,1.6-0.7s1.2,0.2,1.6,0.7c0.4,0.4,0.7,1,0.7,1.6v0.1c0,0.4,0.1,0.7,0.3,1s0.5,0.5,0.8,0.7
	c0.3,0.2,0.7,0.2,1.1,0.1c0.4-0.1,0.7-0.2,1-0.5l0.1-0.1c0.2-0.2,0.5-0.4,0.7-0.5c0.3-0.1,0.6-0.2,0.9-0.2c0.3,0,0.6,0.1,0.9,0.2
	c0.3,0.1,0.5,0.3,0.7,0.5c0.2,0.2,0.4,0.5,0.5,0.7c0.1,0.3,0.2,0.6,0.2,0.9c0,0.3-0.1,0.6-0.2,0.9c-0.1,0.3-0.3,0.5-0.5,0.7
	l-0.1,0.1c-0.3,0.3-0.4,0.6-0.5,1c-0.1,0.4,0,0.7,0.1,1.1v0.1c0.1,0.3,0.4,0.6,0.7,0.8c0.3,0.2,0.7,0.3,1,0.3h0.2
	c0.6,0,1.2,0.2,1.6,0.7s0.7,1,0.7,1.6s-0.2,1.2-0.7,1.6s-1,0.7-1.6,0.7h-0.1c-0.4,0-0.7,0.1-1,0.3S48.6,63.1,48.4,63.4L48.4,63.4z"
	/>
</svg>
