<?xml version="1.0" encoding="utf-8"?>
<!-- Generator: Adobe Illustrator 27.3.1, SVG Export Plug-In . SVG Version: 6.00 Build 0)  -->
<svg version="1.1" id="Layer_1" xmlns="http://www.w3.org/2000/svg" xmlns:xlink="http://www.w3.org/1999/xlink" x="0px" y="0px"
	 viewBox="0 0 1296 694" style="enable-background:new 0 0 1296 694;" xml:space="preserve">
<style type="text/css">
	.st0{fill:#0066FF;filter:url(#Adobe_OpacityMaskFilter);}
	.st1{mask:url(#mask0_5_8044_00000102537855690994448040000006744602892209165192_);}
	.st2{fill:url(#SVGID_1_);}
	.st3{fill:url(#SVGID_00000063602622755842846000000009689163479489828994_);}
</style>
<defs>
	<filter id="Adobe_OpacityMaskFilter" filterUnits="userSpaceOnUse" x="-104.6" y="401.4" width="1505.5" height="362.6">
		<feColorMatrix  type="matrix" values="1 0 0 0 0  0 1 0 0 0  0 0 1 0 0  0 0 0 1 0"/>
	</filter>
</defs>
<mask maskUnits="userSpaceOnUse" x="-104.6" y="401.4" width="1505.5" height="362.6" id="mask0_5_8044_00000102537855690994448040000006744602892209165192_">
	<path class="st0" d="M30,0h1236c16.6,0,30,13.4,30,30v634c0,16.6-13.4,30-30,30H30c-16.6,0-30-13.4-30-30V30C0,13.4,13.4,0,30,0z"
		/>
</mask>
<g class="st1">
	
		<linearGradient id="SVGID_1_" gradientUnits="userSpaceOnUse" x1="649.1694" y1="306" x2="649.1694" y2="-68" gradientTransform="matrix(1 0 0 -1 0 696)">
		<stop  offset="0" style="stop-color:#5302FF"/>
		<stop  offset="1" style="stop-color:#0066FF;stop-opacity:0"/>
	</linearGradient>
	<path class="st2" d="M606,546.2C393.6,417.1,89.2,502-38.9,561.5c-1.6,0.7-2.7,2-3.2,3.7l-60,178.2c-1.4,4.1,1.6,8.3,6,8.4
		l1447,12.2c3,0,5.7-2.1,6.3-5.1l43.7-222.4c0.3-1.7,0-3.4-1-4.8l-87.1-127c-3.4-4.9-14.6-4.1-18.4,0.5
		C1233.2,478.6,852.3,695.9,606,546.2z"/>
	
		<linearGradient id="SVGID_00000030458306517735140620000012935599276794013585_" gradientUnits="userSpaceOnUse" x1="647.1064" y1="306" x2="647.1064" y2="-68" gradientTransform="matrix(1 0 0 -1 0 696)">
		<stop  offset="8.524463e-08" style="stop-color:#FF6600"/>
		<stop  offset="1" style="stop-color:#0066FF;stop-opacity:0"/>
	</linearGradient>
	<path style="fill:url(#SVGID_00000030458306517735140620000012935599276794013585_);" d="M690.3,546.2
		c212.4-129.1,516.8-44.2,644.9,15.3c1.6,0.7,2.7,2,3.2,3.7l60,178.2c1.4,4.1-1.6,8.3-6,8.4L-54.5,764c-3.1,0-5.7-2.1-6.3-5.1
		l-43.7-222.4c-0.3-1.7,0-3.4,1-4.8l87.1-127c3.4-4.9,14.6-4.1,18.4,0.5C63.1,478.6,443.9,695.9,690.3,546.2z"/>
</g>
</svg>
