<?xml version="1.0" encoding="utf-8"?>
<!-- Generator: Adobe Illustrator 27.3.1, SVG Export Plug-In . SVG Version: 6.00 Build 0)  -->
<svg version="1.1" id="Layer_2_00000158028059575993882890000002457981815341960610_"
	 xmlns="http://www.w3.org/2000/svg" xmlns:xlink="http://www.w3.org/1999/xlink" x="0px" y="0px" viewBox="0 0 806.8 246.8"
	 style="enable-background:new 0 0 806.8 246.8;" xml:space="preserve">
<style type="text/css">
	.st0{fill:#606060;}
	.st1{fill:#FF6600;}
	.st2{fill:#333A75;}
</style>
<g>
	<g>
		<path d="M272.3,154.6V69.8H332v18.6h-36.6v14.6h33v18.6h-33v33.2H272.3z"/>
		<path d="M351.9,154.6H327l28-84.9h31.5l28,84.9h-24.9l-18.6-61.5h-0.7L351.9,154.6z M347.2,121.1H394v17.2h-46.8V121.1z"/>
		<path d="M497.9,101.6h-23.4c-0.2-1.9-0.6-3.7-1.3-5.3c-0.7-1.6-1.7-2.9-2.9-4.1c-1.2-1.1-2.7-2-4.5-2.7c-1.7-0.6-3.7-0.9-5.9-0.9
			c-3.9,0-7.1,0.9-9.8,2.8c-2.7,1.9-4.7,4.6-6.1,8.1c-1.4,3.5-2.1,7.7-2.1,12.6c0,5.2,0.7,9.5,2.1,13c1.4,3.5,3.4,6.1,6.1,7.9
			c2.7,1.8,5.8,2.6,9.6,2.6c2.1,0,4-0.3,5.7-0.8s3.2-1.3,4.4-2.3c1.2-1,2.3-2.3,3-3.7c0.8-1.5,1.3-3.1,1.6-4.9l23.4,0.2
			c-0.3,3.6-1.3,7.2-3,11c-1.7,3.7-4.2,7.1-7.4,10.3c-3.2,3.1-7.1,5.7-11.8,7.6c-4.7,1.9-10.2,2.9-16.4,2.9c-7.8,0-14.8-1.7-21-5
			c-6.2-3.3-11.1-8.3-14.6-14.8c-3.6-6.5-5.4-14.4-5.4-23.8c0-9.5,1.8-17.4,5.5-23.9c3.6-6.5,8.6-11.4,14.8-14.7
			c6.2-3.3,13.1-5,20.7-5c5.4,0,10.3,0.7,14.8,2.2c4.5,1.5,8.5,3.6,11.9,6.4c3.4,2.8,6.1,6.3,8.2,10.3
			C496.2,91.6,497.5,96.3,497.9,101.6z"/>
		<path d="M531.4,69.8v84.9h-23V69.8H531.4z"/>
		<path d="M542.4,154.6V69.8h23v66.3h34.3v18.6H542.4z"/>
		<path d="M632.1,69.8v84.9h-23V69.8H632.1z"/>
		<path d="M640.7,88.3V69.8h73.8v18.6h-25.5v66.3h-22.7V88.3H640.7z"/>
		<path d="M719.6,69.8h25.7l16.6,34.5h0.7l16.6-34.5h25.7l-31.2,58.2v26.7h-22.9v-26.7L719.6,69.8z"/>
	</g>
	<g>
		<path class="st0" d="M282,181.5h-11.4v-13.8h39.9v13.8h-11.4v46.6H282V181.5z"/>
		<path class="st0" d="M311.5,223.4c-4.1-4.1-6.1-9.7-6.1-16.8c0-7.2,2-12.8,5.9-16.9c3.9-4.1,9.5-6.1,16.6-6.1c7.8,0,13.6,2,17.5,6
			c3.8,4,5.7,10.2,5.6,18.6h-28.5c0.2,5.1,2.2,7.6,6,7.6c2.8,0,4.6-1.5,5.4-4.6h17c0,2.8-0.7,5.6-2.1,8.4c-1.4,2.8-3.8,5.1-7.1,7.1
			c-3.4,1.9-7.8,2.9-13.2,2.9C321.2,229.5,315.5,227.5,311.5,223.4z M333.5,201.1c-0.9-2.5-2.6-3.8-5.2-3.8c-2.6,0-4.3,1.3-5.3,3.8
			H333.5z"/>
		<path class="st0" d="M358.7,223.4c-4.1-4.1-6.1-9.7-6.1-16.8c0-7.2,2.1-12.8,6.2-16.9c4.1-4.1,9.7-6.1,16.9-6.1
			c4.5,0,8.5,0.9,11.9,2.6c3.4,1.7,6,4.1,7.8,7.1s2.7,6.4,2.7,10h-16.8c-0.6-4-2.5-6-5.7-6c-2,0-3.5,0.7-4.5,2.2
			c-1,1.5-1.5,3.8-1.5,7c0,3.2,0.5,5.5,1.5,6.9c1,1.5,2.5,2.2,4.5,2.2c3.2,0,5.1-2,5.7-6h16.8c0,3.7-0.9,7-2.7,10
			c-1.8,3-4.4,5.4-7.8,7.1c-3.4,1.7-7.4,2.6-11.9,2.6C368.4,229.5,362.8,227.5,358.7,223.4z"/>
		<path class="st0" d="M400.7,167.7h2.1l15,5.8v16.6c1.4-2.1,3.1-3.8,5.3-4.9c2.1-1.1,4.6-1.7,7.3-1.7c5.1,0,9,1.7,11.9,5
			c2.9,3.4,4.3,8,4.4,13.9v0.1v0.5v25h-17.1v-25c0-1.6-0.6-3-1.7-4.1c-1.1-1.1-2.5-1.7-4.2-1.7c-1.7,0-3.1,0.6-4.2,1.7
			c-1.2,1.1-1.7,2.5-1.7,4.1v25h-17.1V167.7z"/>
		<path class="st0" d="M454.3,225.5c-3.9-2.6-5.9-6.3-5.9-10.9h17.1c0,1.1,0.5,2,1.4,2.6c0.9,0.6,2.2,0.9,3.8,0.9
			c1.6,0,2.9-0.3,3.8-0.8s1.3-1.2,1.3-2.2c0-1-0.6-1.7-1.9-2.2c-1.2-0.5-3.4-0.7-6.4-0.7c-5.7-0.1-10.3-1.3-13.8-3.7
			c-3.5-2.4-5.2-5.9-5.2-10.5c0-4.5,1.9-8.1,5.7-10.7c3.8-2.6,9-3.9,15.7-3.9c7,0,12.4,1.3,16.3,3.9c3.9,2.6,5.9,6.2,5.9,10.8h-17.1
			c0-1.1-0.5-2-1.4-2.6c-0.9-0.7-2.2-1-3.8-1c-1.6,0-2.9,0.2-3.8,0.7c-0.9,0.5-1.3,1.2-1.3,2c0,1,0.6,1.8,1.8,2.2
			c1.2,0.4,3.3,0.6,6.5,0.6c5.1,0,9,0.5,11.9,1.5c2.9,1,4.9,2.5,6.1,4.4c1.2,2,1.8,4.5,1.8,7.5c0,4.9-2,8.7-5.9,11.5
			c-3.9,2.8-9.4,4.2-16.3,4.2C463.7,229.5,458.3,228.2,454.3,225.5z"/>
	</g>
	<g>
		<path class="st1" d="M110.6,65.8H53.1V95h57.4v40.5H0v29.2h110.6h10.1c10.5,0,19.1-8.5,19.1-19.1v-10.1V95V84.9
			c0-10.5-8.5-19.1-19.1-19.1H110.6z"/>
		<path class="st2" d="M242.7,53.4c-9.4-17.2-22.8-30.4-40.1-39.6C185.3,4.6,164.8,0,141.1,0H53.3v59.6h62.6v-6.4h22.1
			c12,0,22.2,1.8,30.4,5.5c8.3,3.7,14.6,10,18.9,19c4.3,9,6.5,21.5,6.5,37.6c0,16.1-2.1,28.6-6.4,37.6c-4.2,9-10.4,15.3-18.5,19
			c-8.1,3.7-17.8,5.5-29.2,5.5h-16.5h-7.4H53.3h-0.1v-7H0v7v52.8v0.3h53.3h62.6H142c23.4,0,43.7-4.6,60.9-13.8
			c17.2-9.2,30.5-22.4,39.8-39.6c9.4-17.2,14.1-37.8,14.1-61.9C256.8,91.3,252.1,70.6,242.7,53.4z"/>
		<g>
			<path class="st2" d="M245.4,7.8c-6.3,0-11.4,5.1-11.4,11.4s5.1,11.4,11.4,11.4c6.3,0,11.4-5.1,11.4-11.4S251.7,7.8,245.4,7.8z
				 M245.4,28.6c-5.2,0-9.4-4.2-9.4-9.4s4.2-9.4,9.4-9.4c5.2,0,9.4,4.2,9.4,9.4S250.6,28.6,245.4,28.6z"/>
			<path class="st2" d="M249.8,19.4c0.4-0.6,0.6-1.4,0.6-2.3c0-0.9-0.2-1.7-0.6-2.4c-0.4-0.7-1-1.2-1.7-1.5
				c-0.7-0.3-1.6-0.5-2.5-0.5H240v13h3.5v-4.3h1.2l2.3,4.3h3.8l-2.6-4.8C248.9,20.5,249.4,20,249.8,19.4z M243.5,15.5h1.2
				c0.4,0,0.8,0.1,1.1,0.2c0.3,0.1,0.5,0.3,0.7,0.5c0.2,0.2,0.2,0.5,0.2,0.9c0,0.4-0.1,0.7-0.2,0.9c-0.2,0.2-0.4,0.4-0.7,0.5
				c-0.3,0.1-0.6,0.2-1.1,0.2h-1.2V15.5z"/>
		</g>
	</g>
</g>
</svg>
