<?xml version="1.0" encoding="UTF-8"?>
<svg id="Layer_2" data-name="Layer 2" xmlns="http://www.w3.org/2000/svg" viewBox="0 0 806.8 246.75">
  <defs>
    <style>
      .cls-1 {
        letter-spacing: -.08em;
      }

      .cls-2 {
        fill: #f60;
      }

      .cls-3 {
        font-family: InterV-Black, 'Inter V';
        font-size: 116.72px;
        font-variation-settings: 'wght' 900, 'slnt' 0;
        font-weight: 800;
      }

      .cls-4 {
        fill: #333a75;
      }

      .cls-5 {
        letter-spacing: -.03em;
      }

      .cls-6 {
        letter-spacing: -.09em;
      }

      .cls-7 {
        fill: #606060;
        font-family: Introvert-Regular, Introvert;
        font-size: 86.26px;
      }

      .cls-8 {
        letter-spacing: 0em;
      }
    </style>
  </defs>
  <g id="Layer_1-2" data-name="Layer 1">
    <g>
      <text class="cls-3" transform="translate(266.8 154.64)"><tspan class="cls-6" x="0" y="0">F</tspan><tspan class="cls-5" x="57.53" y="0">A</tspan><tspan x="146.4" y="0">CILITY</tspan></text>
      <text class="cls-7" transform="translate(269.8 228.12)"><tspan class="cls-1" x="0" y="0">T</tspan><tspan x="34.68" y="0">ec</tspan><tspan class="cls-8" x="129.21" y="0">h</tspan><tspan x="177.77" y="0">s</tspan></text>
      <path class="cls-2" d="m110.58,65.85h-57.45v29.16h57.45v40.53H0v29.16h120.67c10.53,0,19.07-8.54,19.07-19.07v-60.7c0-10.53-8.54-19.07-19.07-19.07h-10.09Z"/>
      <path class="cls-4" d="m242.67,53.41c-9.42-17.22-22.78-30.43-40.07-39.62C185.3,4.6,164.79,0,141.08,0H53.28v59.58h62.59v-6.44h22.06c12.01,0,22.16,1.84,30.45,5.52,8.29,3.68,14.6,10.02,18.91,19.02,4.31,9.01,6.47,21.54,6.47,37.6s-2.12,28.59-6.36,37.6c-4.24,9.01-10.4,15.35-18.46,19.02-8.07,3.68-17.81,5.52-29.21,5.52H53.13v-6.97H0v60.1h141.98c23.41,0,43.71-4.6,60.9-13.79,17.18-9.19,30.47-22.4,39.85-39.62,9.38-17.22,14.07-37.84,14.07-61.86s-4.71-44.63-14.13-61.86Z"/>
      <g>
        <path class="cls-4" d="m245.4,7.78c-6.3,0-11.4,5.1-11.4,11.4s5.1,11.4,11.4,11.4,11.4-5.1,11.4-11.4-5.1-11.4-11.4-11.4Zm0,20.82c-5.2,0-9.42-4.22-9.42-9.42s4.22-9.42,9.42-9.42,9.42,4.22,9.42,9.42-4.22,9.42-9.42,9.42Z"/>
        <path class="cls-4" d="m249.77,19.45c.41-.64.62-1.42.62-2.35s-.2-1.71-.6-2.37c-.4-.66-.96-1.16-1.68-1.51-.72-.35-1.56-.53-2.52-.53h-5.59v12.95h3.52v-4.28h1.22l2.27,4.28h3.82l-2.63-4.83c.67-.32,1.2-.78,1.58-1.37Zm-6.26-3.94h1.24c.41,0,.77.06,1.06.17.29.11.52.28.68.52.16.23.24.54.24.91s-.08.66-.24.89c-.16.23-.38.39-.68.5-.29.1-.65.15-1.06.15h-1.24v-3.14Z"/>
      </g>
    </g>
  </g>
</svg>